<svg xmlns="http://www.w3.org/2000/svg" xmlns:xlink="http://www.w3.org/1999/xlink" width="1000" zoomAndPan="magnify" viewBox="0 0 750 749.999995" height="1000" preserveAspectRatio="xMidYMid meet" version="1.0"><defs><g/><clipPath id="7fa0a910e9"><rect x="0" width="373" y="0" height="427"/></clipPath></defs><g transform="matrix(1, 0, 0, 1, 199, 160)"><g clip-path="url(#7fa0a910e9)"><g fill="#301705" fill-opacity="1"><g transform="translate(3.7036, 317.45763)"><g><path d="M 180.542969 -300.058594 L 287.695312 -43.066406 C 291.914062 -33.222656 296.273438 -24.222656 300.777344 -16.0625 C 305.3125 -7.84375 307.996094 -3.039062 308.832031 -1.648438 L 311.738281 3.203125 L 252.296875 3.203125 L 149.445312 -243.378906 C 146.886719 -249.632812 143.550781 -257.519531 139.429688 -267.03125 C 135.371094 -276.410156 131.394531 -284.160156 127.503906 -290.277344 L 130.203125 -291.996094 L 133.34375 -291.367188 C 130.441406 -276.867188 125.019531 -261.523438 117.070312 -245.335938 C 109.199219 -229.3125 100.261719 -213.074219 90.25 -196.628906 C 80.296875 -180.277344 70.695312 -164.28125 61.453125 -148.636719 C 52.273438 -133.105469 44.722656 -118.429688 38.800781 -104.609375 C 31.3125 -86.855469 27.839844 -72.675781 28.382812 -62.0625 C 28.890625 -52.171875 31.816406 -45.800781 37.152344 -42.953125 C 42.609375 -40.042969 49.976562 -40.777344 59.253906 -45.15625 L 60.621094 -42.261719 L 59.1875 -45.125 C 65.210938 -48.140625 71.679688 -52.617188 78.59375 -58.5625 C 85.640625 -64.625 92.832031 -71.394531 100.167969 -78.871094 C 107.53125 -86.371094 114.464844 -93.804688 120.976562 -101.160156 C 127.542969 -108.589844 133.402344 -115.019531 138.550781 -120.453125 C 144.257812 -126.457031 150.722656 -131.042969 157.949219 -134.203125 C 165.65625 -137.574219 173.359375 -137.496094 181.058594 -133.96875 L 179.722656 -131.058594 L 180.914062 -134.03125 C 184.121094 -132.746094 187.648438 -130.335938 191.496094 -126.796875 C 195.101562 -123.480469 198.636719 -120.015625 202.097656 -116.410156 C 205.496094 -112.871094 208.328125 -109.96875 210.589844 -107.707031 L 218.433594 -99.863281 L 207.617188 -102.320312 C 202.097656 -103.574219 195.839844 -102.453125 188.839844 -98.949219 C 181.402344 -95.234375 174.230469 -90.335938 167.324219 -84.257812 C 159.449219 -77.503906 151.289062 -69.347656 142.851562 -59.78125 C 134.285156 -50.074219 125.433594 -40.4375 116.296875 -30.871094 C 107.007812 -21.148438 97.269531 -13.082031 87.082031 -6.679688 C 76.601562 -0.09375 65.789062 3.203125 54.644531 3.203125 C 30.742188 3.203125 14.675781 -6.558594 6.441406 -26.078125 C 2.238281 -36.585938 0.882812 -47.804688 2.371094 -59.734375 C 3.832031 -71.414062 7.109375 -83.292969 12.203125 -95.375 C 17.242188 -107.324219 23.21875 -119.054688 30.125 -130.570312 C 36.996094 -142.019531 44.011719 -152.828125 51.171875 -162.996094 C 58.261719 -173.0625 64.355469 -182.0625 69.453125 -189.992188 C 73.429688 -195.957031 78.320312 -203.757812 84.132812 -213.394531 C 89.941406 -223.03125 95.824219 -233.308594 101.777344 -244.222656 C 107.699219 -255.082031 112.703125 -265.4375 116.785156 -275.292969 C 120.769531 -284.90625 122.894531 -292.796875 123.164062 -298.964844 L 123.296875 -302.027344 L 179.722656 -302.027344 Z M 174.632812 -297.59375 L 177.589844 -298.828125 L 177.589844 -295.625 L 126.359375 -295.625 L 126.359375 -298.828125 L 129.558594 -298.6875 C 129.257812 -291.765625 126.972656 -283.152344 122.703125 -272.84375 C 118.53125 -262.777344 113.429688 -252.214844 107.402344 -241.15625 C 101.402344 -230.160156 95.472656 -219.804688 89.617188 -210.085938 C 83.757812 -200.371094 78.832031 -192.515625 74.839844 -186.53125 C 69.691406 -178.523438 63.546875 -169.449219 56.40625 -159.308594 C 49.335938 -149.269531 42.40625 -138.59375 35.617188 -127.273438 C 28.863281 -116.019531 23.027344 -104.558594 18.105469 -92.886719 C 13.238281 -81.347656 10.113281 -70.03125 8.726562 -58.941406 C 7.371094 -48.105469 8.578125 -37.980469 12.339844 -28.566406 C 19.476562 -11.65625 33.574219 -3.203125 54.644531 -3.203125 C 64.558594 -3.203125 74.234375 -6.167969 83.675781 -12.101562 C 93.410156 -18.222656 102.742188 -25.953125 111.667969 -35.296875 C 120.742188 -44.800781 129.539062 -54.375 138.046875 -64.019531 C 146.683594 -73.804688 155.03125 -82.15625 163.09375 -89.0625 C 170.417969 -95.507812 178.042969 -100.710938 185.976562 -104.679688 C 194.34375 -108.863281 202.027344 -110.15625 209.035156 -108.566406 L 208.324219 -105.445312 L 206.0625 -103.179688 C 203.769531 -105.472656 200.90625 -108.402344 197.476562 -111.976562 C 194.109375 -115.488281 190.667969 -118.855469 187.160156 -122.082031 C 183.890625 -125.089844 181.015625 -127.089844 178.535156 -128.085938 L 178.460938 -128.113281 L 178.390625 -128.148438 C 172.429688 -130.878906 166.46875 -130.941406 160.515625 -128.335938 C 154.082031 -125.523438 148.308594 -121.425781 143.199219 -116.046875 C 138.101562 -110.667969 132.292969 -104.289062 125.769531 -96.917969 C 119.1875 -89.476562 112.179688 -81.964844 104.742188 -74.386719 C 97.277344 -66.777344 89.953125 -59.886719 82.769531 -53.710938 C 75.457031 -47.417969 68.550781 -42.648438 62.050781 -39.398438 L 61.988281 -39.367188 C 50.769531 -34.070312 41.488281 -33.382812 34.140625 -37.304688 C 26.671875 -41.285156 22.621094 -49.429688 21.988281 -61.734375 C 21.394531 -73.324219 25.039062 -88.457031 32.917969 -107.132812 C 38.945312 -121.203125 46.621094 -136.125 55.941406 -151.894531 C 65.199219 -167.5625 74.8125 -183.582031 84.777344 -199.957031 C 94.691406 -216.238281 103.535156 -232.304688 111.320312 -248.15625 C 119.023438 -263.84375 124.273438 -278.667969 127.0625 -292.625 L 128.625 -300.4375 L 132.90625 -293.714844 C 136.980469 -287.3125 141.113281 -279.265625 145.308594 -269.574219 C 149.445312 -260.023438 152.792969 -252.113281 155.355469 -245.84375 L 257.386719 -1.234375 L 254.429688 0 L 254.429688 -3.203125 L 306.085938 -3.203125 L 306.085938 0 L 303.339844 1.648438 C 302.464844 0.191406 299.742188 -4.679688 295.171875 -12.96875 C 290.566406 -21.3125 286.101562 -30.527344 281.785156 -40.605469 Z M 174.632812 -297.59375 "/></g></g></g><g fill="#000000" fill-opacity="1"><g transform="translate(3.7036, 317.45763)"><g><path d="M 177.59375 -298.828125 L 284.734375 -41.828125 C 289.003906 -31.867188 293.414062 -22.765625 297.96875 -14.515625 C 302.519531 -6.265625 305.222656 -1.425781 306.078125 0 L 254.421875 0 L 152.40625 -244.609375 C 149.84375 -250.867188 146.492188 -258.765625 142.359375 -268.296875 C 138.234375 -277.835938 134.179688 -285.738281 130.203125 -292 C 127.359375 -277.769531 122.019531 -262.6875 114.1875 -246.75 C 106.363281 -230.8125 97.472656 -214.660156 87.515625 -198.296875 C 77.554688 -181.929688 67.953125 -165.921875 58.703125 -150.265625 C 49.453125 -134.609375 41.835938 -119.8125 35.859375 -105.875 C 28.171875 -87.65625 24.613281 -72.992188 25.1875 -61.890625 C 25.757812 -50.796875 29.242188 -43.539062 35.640625 -40.125 C 42.046875 -36.707031 50.375 -37.421875 60.625 -42.265625 C 66.882812 -45.390625 73.570312 -50.007812 80.6875 -56.125 C 87.800781 -62.25 95.054688 -69.082031 102.453125 -76.625 C 109.847656 -84.164062 116.816406 -91.632812 123.359375 -99.03125 C 129.910156 -106.4375 135.75 -112.84375 140.875 -118.25 C 146.28125 -123.9375 152.394531 -128.273438 159.21875 -131.265625 C 166.050781 -134.253906 172.882812 -134.1875 179.71875 -131.0625 C 182.5625 -129.914062 185.757812 -127.707031 189.3125 -124.4375 C 192.875 -121.164062 196.363281 -117.75 199.78125 -114.1875 C 203.195312 -110.632812 206.046875 -107.71875 208.328125 -105.4375 C 202.066406 -106.863281 195.09375 -105.65625 187.40625 -101.8125 C 179.71875 -97.96875 172.316406 -92.914062 165.203125 -86.65625 C 157.234375 -79.820312 148.976562 -71.566406 140.4375 -61.890625 C 131.90625 -52.222656 123.082031 -42.617188 113.96875 -33.078125 C 104.863281 -23.546875 95.332031 -15.648438 85.375 -9.390625 C 75.414062 -3.128906 65.171875 0 54.640625 0 C 32.160156 0 17.078125 -9.109375 9.390625 -27.328125 C 5.410156 -37.285156 4.128906 -47.953125 5.546875 -59.328125 C 6.972656 -70.710938 10.175781 -82.3125 15.15625 -94.125 C 20.132812 -105.9375 26.035156 -117.535156 32.859375 -128.921875 C 39.691406 -140.304688 46.664062 -151.050781 53.78125 -161.15625 C 60.894531 -171.257812 67.015625 -180.296875 72.140625 -188.265625 C 76.128906 -194.234375 81.039062 -202.054688 86.875 -211.734375 C 92.707031 -221.410156 98.609375 -231.726562 104.578125 -242.6875 C 110.554688 -253.644531 115.609375 -264.101562 119.734375 -274.0625 C 123.867188 -284.019531 126.078125 -292.273438 126.359375 -298.828125 Z M 177.59375 -298.828125 "/></g></g></g></g></g></svg>